<?xml version="1.0" standalone="no"?>
<!DOCTYPE svg PUBLIC "-//W3C//DTD SVG 20010904//EN"
 "http://www.w3.org/TR/2001/REC-SVG-20010904/DTD/svg10.dtd">
<svg version="1.0" xmlns="http://www.w3.org/2000/svg"
 width="437.000000pt" height="417.000000pt" viewBox="0 0 437.000000 417.000000"
 preserveAspectRatio="xMidYMid meet">

<g transform="translate(0.000000,417.000000) scale(0.100000,-0.100000)"
fill="#000000" stroke="none">
<path d="M2104 4012 c-83 -60 -103 -115 -70 -193 21 -50 50 -76 122 -110 62
-30 64 -31 60 -64 -2 -18 -9 -42 -15 -53 -6 -11 -10 -67 -9 -126 l1 -106 25 0
25 0 -6 160 c-3 88 -3 168 0 178 2 10 17 23 33 29 41 15 93 99 79 125 -12 23
-20 18 -35 -25 -6 -17 -19 -35 -30 -41 -10 -6 -22 -15 -25 -19 -20 -28 -119
-25 -119 3 0 6 -9 10 -19 10 -12 0 -21 9 -25 25 -4 14 -11 25 -16 25 -16 0
-12 84 6 118 8 18 21 32 28 32 7 0 21 9 31 20 22 24 80 27 101 5 9 -8 22 -15
31 -15 36 0 -36 39 -83 45 -44 6 -53 4 -90 -23z"/>
<path d="M2290 3960 c0 -5 5 -10 10 -10 6 0 10 5 10 10 0 6 -4 10 -10 10 -5 0
-10 -4 -10 -10z"/>
<path d="M2693 3644 c-17 -9 -47 -33 -67 -54 -31 -34 -36 -46 -36 -87 0 -162
188 -239 293 -120 36 42 44 74 23 95 -14 14 -16 15 -16 1 0 -26 -31 -79 -46
-79 -7 0 -19 -9 -26 -20 -18 -28 -88 -28 -108 -1 -7 11 -17 18 -22 15 -4 -3
-11 3 -15 13 -4 10 -13 24 -21 32 -31 31 -2 161 36 161 5 0 17 9 27 20 12 13
31 20 54 20 25 0 41 -6 51 -20 8 -11 20 -20 27 -20 7 0 13 -7 13 -15 0 -8 5
-15 10 -15 17 0 -7 36 -37 58 -40 28 -101 35 -140 16z"/>
<path d="M1493 3594 c-17 -9 -47 -33 -67 -54 -31 -34 -36 -46 -36 -87 0 -162
188 -239 293 -120 36 42 44 74 23 95 -14 14 -16 15 -16 1 0 -26 -31 -79 -46
-79 -7 0 -19 -9 -26 -20 -18 -28 -88 -28 -108 -1 -7 11 -17 18 -22 15 -4 -3
-11 3 -15 13 -4 10 -13 24 -21 32 -31 31 -2 161 36 161 5 0 17 9 27 20 12 13
31 20 54 20 25 0 41 -6 51 -20 8 -11 20 -20 27 -20 7 0 13 -7 13 -15 0 -8 5
-15 10 -15 17 0 -7 36 -37 58 -40 28 -101 35 -140 16z"/>
<path d="M2130 3343 c-19 -10 -52 -35 -72 -56 -32 -33 -38 -45 -38 -82 0 -124
125 -212 233 -166 65 28 120 104 94 130 -18 18 -26 13 -33 -24 -4 -23 -13 -37
-28 -41 -11 -4 -28 -15 -37 -25 -20 -23 -81 -25 -99 -4 -7 8 -19 15 -26 15 -8
0 -19 11 -24 24 -5 13 -14 27 -19 31 -13 8 -15 105 -2 105 5 0 12 11 15 25 4
15 14 25 24 25 9 0 23 9 30 20 17 28 78 27 103 -1 10 -12 24 -19 30 -17 19 6
-41 44 -81 51 -23 4 -47 1 -70 -10z"/>
<path d="M2295 3280 c-3 -5 -1 -10 4 -10 6 0 11 5 11 10 0 6 -2 10 -4 10 -3 0
-8 -4 -11 -10z"/>
<path d="M1590 3021 c0 -6 5 -13 10 -16 6 -3 10 1 10 9 0 9 -4 16 -10 16 -5 0
-10 -4 -10 -9z"/>
<path d="M2806 2995 c4 -8 8 -15 10 -15 2 0 4 7 4 15 0 8 -4 15 -10 15 -5 0
-7 -7 -4 -15z"/>
<path d="M1580 2931 c0 -17 -4 -33 -10 -36 -5 -3 -10 -19 -10 -36 0 -16 -4
-29 -10 -29 -6 0 -10 -32 -10 -75 l0 -75 -40 0 c-22 0 -40 -4 -40 -10 0 -5
-26 -10 -57 -11 -81 -1 -229 -25 -248 -39 -5 -5 -43 -12 -83 -15 -40 -4 -75
-12 -78 -16 -3 -5 -16 -9 -30 -9 -13 0 -24 -4 -24 -10 0 -5 -8 -10 -17 -10
-26 0 -113 -32 -113 -42 0 -4 -9 -8 -20 -8 -11 0 -55 -18 -98 -39 -72 -37
-130 -87 -158 -137 -6 -11 -29 -23 -52 -28 -23 -6 -42 -13 -42 -18 0 -4 -13
-8 -28 -8 -15 0 -32 -4 -37 -9 -6 -5 -42 -11 -82 -13 -59 -3 -75 -8 -91 -26
-11 -12 -28 -22 -39 -22 -11 0 -30 -11 -43 -25 -13 -14 -28 -25 -35 -25 -14 0
-39 -29 -56 -68 -8 -18 -17 -32 -21 -32 -5 0 -8 -18 -8 -40 0 -22 5 -40 10
-40 6 0 10 -5 10 -10 0 -12 57 -70 68 -70 5 0 23 -16 42 -35 19 -19 40 -35 47
-35 7 0 13 -4 13 -9 0 -5 11 -12 25 -15 14 -4 25 -11 25 -16 0 -6 11 -10 25
-10 14 0 25 -4 25 -10 0 -5 18 -13 40 -16 22 -4 40 -10 40 -15 0 -5 27 -9 60
-9 l60 0 0 -82 c0 -60 7 -105 26 -167 59 -191 121 -369 136 -385 4 -6 8 -16 8
-23 0 -26 73 -178 119 -247 14 -21 31 -46 36 -54 6 -9 18 -25 28 -36 16 -19
80 -105 131 -175 10 -14 44 -46 75 -71 31 -25 60 -51 64 -57 4 -7 14 -13 21
-13 7 0 21 -9 31 -20 19 -21 232 -130 253 -130 7 0 20 -4 30 -10 44 -24 360
-120 500 -152 72 -16 107 -28 113 -40 12 -22 67 -24 75 -3 7 17 49 20 59 5 9
-15 42 -12 126 8 41 11 110 27 154 36 44 10 89 22 100 26 11 5 45 16 75 25 30
9 63 21 72 26 10 5 25 9 33 9 8 0 23 4 33 9 9 5 42 17 72 26 68 20 268 116
295 143 12 10 26 21 32 23 16 6 94 70 133 109 41 42 58 63 108 133 20 29 49
68 64 87 65 80 90 122 152 263 14 32 26 63 26 70 0 7 4 17 8 23 5 5 23 50 41
99 18 50 37 99 41 110 4 11 24 75 44 142 28 93 36 139 36 197 l0 76 50 0 c28
0 58 4 68 9 38 20 91 41 104 41 8 0 23 9 32 19 10 11 29 22 43 26 14 3 41 22
59 41 19 18 37 34 42 34 4 0 29 22 55 49 38 40 47 56 47 85 0 25 -4 36 -15 36
-8 0 -15 7 -15 15 0 8 -4 15 -10 15 -5 0 -10 6 -10 13 0 16 -42 57 -57 57 -7
0 -20 11 -31 25 -11 14 -29 25 -40 25 -11 0 -27 7 -36 15 -8 8 -19 15 -25 15
-6 0 -11 4 -11 9 0 4 -43 11 -96 14 -54 3 -100 10 -103 15 -3 5 -24 13 -46 16
-47 8 -58 16 -106 76 -20 25 -61 58 -90 74 -30 15 -63 36 -74 45 -34 30 -212
100 -283 111 -37 6 -94 18 -127 26 -77 20 -220 44 -262 44 l-33 0 0 75 c0 43
-4 75 -10 75 -5 0 -10 16 -10 35 0 19 -4 35 -10 35 -5 0 -10 13 -10 29 0 17
-4 32 -9 36 -11 6 -4 -59 9 -90 11 -27 20 -129 13 -155 -5 -20 -10 -21 -72
-16 -36 3 -175 10 -308 15 -134 5 -247 13 -253 16 -6 3 -10 47 -10 97 0 50 -2
89 -4 87 -2 -2 -7 -42 -10 -89 -4 -46 -9 -86 -12 -89 -8 -8 -212 -20 -364 -20
-80 -1 -162 -6 -184 -12 -58 -16 -59 -14 -57 130 1 24 5 49 10 55 12 16 21 86
10 86 -5 0 -9 -13 -9 -29z m585 -346 c1 -22 4 -92 6 -155 l4 -115 -134 0
c-148 0 -139 -4 -161 72 -15 50 -93 129 -165 168 -100 54 -98 55 102 55 115 0
184 4 188 10 4 7 37 10 82 8 l75 -3 3 -40z m160 35 c4 -6 79 -10 192 -10 115
0 199 -4 218 -11 32 -12 32 -12 13 -31 -11 -11 -38 -27 -61 -37 -74 -32 -136
-106 -170 -203 -6 -16 -22 -18 -152 -18 l-145 0 0 124 c0 73 -4 127 -10 131
-5 3 -10 19 -10 36 0 29 0 29 59 29 33 0 63 -4 66 -10z m-728 -55 c19 -19 40
-35 48 -35 8 0 15 -4 15 -10 0 -5 7 -10 15 -10 8 0 15 -4 15 -10 0 -5 11 -10
25 -10 14 0 25 -4 25 -10 0 -5 6 -10 13 -10 7 0 19 -9 27 -20 8 -11 19 -20 26
-20 6 0 17 -11 24 -25 7 -14 17 -25 22 -25 10 0 11 -70 1 -71 -5 0 -89 -5
-188 -10 -201 -10 -261 -16 -290 -29 -11 -5 -76 -14 -145 -19 -140 -11 -200
-20 -215 -31 -5 -4 -26 -10 -45 -14 -51 -9 -132 -51 -158 -81 -17 -20 -28 -24
-45 -19 -12 4 -24 9 -27 13 -3 3 -18 13 -35 21 -44 22 -95 75 -95 98 0 11 -5
22 -12 24 -13 5 13 50 53 89 26 25 87 59 108 59 6 0 11 5 11 10 0 6 11 10 25
10 14 0 25 4 25 9 0 5 15 11 32 15 42 8 88 29 88 38 0 5 11 8 25 8 14 0 25 4
25 9 0 5 18 7 40 4 26 -4 40 -2 40 6 0 7 19 11 50 11 28 0 50 4 50 9 0 5 36
13 80 17 44 3 83 11 86 15 3 5 34 9 70 9 36 0 64 4 64 10 0 6 21 10 46 10 40
0 52 -5 81 -35z m1393 6 c0 -4 35 -11 77 -15 42 -3 82 -11 87 -16 6 -6 32 -10
58 -10 26 0 48 -4 48 -9 0 -4 28 -11 62 -15 34 -3 64 -9 67 -14 11 -14 49 -31
85 -37 20 -4 36 -11 36 -15 0 -4 18 -10 39 -14 69 -11 132 -45 188 -101 48
-48 65 -80 39 -75 -4 1 -26 -20 -49 -45 -43 -48 -120 -95 -157 -95 -12 0 -31
10 -44 23 -12 12 -42 29 -67 36 -24 8 -66 24 -94 36 -27 13 -81 26 -120 29
-63 7 -143 18 -320 47 -33 6 -126 14 -208 18 -81 4 -152 12 -157 17 -13 13 16
73 39 82 21 8 41 28 41 41 0 6 7 11 15 11 8 0 15 4 15 9 0 5 17 11 39 15 26 4
40 12 44 25 2 10 17 21 32 25 30 8 55 28 55 45 0 7 28 11 75 11 41 0 75 -4 75
-9z m-2470 -336 c0 -49 87 -137 178 -180 40 -19 77 -35 83 -35 9 0 49 -20 59
-30 11 -11 82 -40 98 -40 10 0 22 -4 28 -9 8 -9 37 -16 169 -42 28 -6 86 -14
130 -19 44 -5 112 -13 150 -19 39 -6 98 -10 132 -11 34 0 63 -5 65 -11 2 -6
93 -12 256 -16 141 -3 255 -10 259 -16 8 -13 -18 -159 -31 -176 -6 -8 -26 -20
-44 -28 -18 -7 -35 -20 -39 -28 -3 -8 -20 -22 -39 -31 -25 -12 -34 -23 -34
-40 0 -13 4 -24 8 -24 5 0 19 -10 32 -22 13 -13 44 -34 68 -48 25 -14 49 -32
53 -40 6 -13 16 -69 35 -205 3 -22 10 -44 15 -50 5 -5 9 -67 9 -137 l0 -128
-24 0 c-14 0 -28 -4 -31 -10 -3 -5 -26 -10 -50 -10 -24 0 -46 -4 -49 -9 -3 -4
-40 -11 -82 -15 -49 -5 -87 -14 -103 -25 -14 -10 -42 -22 -61 -26 -19 -4 -44
-14 -55 -22 -18 -14 -14 -15 43 -9 l62 6 0 -40 c0 -53 -16 -59 -167 -62 l-118
-3 1 245 c1 234 11 349 35 375 5 5 9 17 9 28 0 23 19 42 50 51 22 6 85 33 130
56 19 9 25 67 9 86 -6 8 -22 14 -35 14 -12 0 -25 4 -28 9 -4 5 -24 12 -45 16
-43 7 -75 36 -84 75 -30 131 -40 150 -76 150 -11 0 -23 5 -26 10 -12 20 -24 9
-36 -32 -6 -24 -13 -55 -14 -70 -10 -75 -25 -103 -63 -120 -21 -10 -43 -18
-49 -18 -5 0 -20 -11 -33 -25 -13 -14 -31 -25 -41 -25 -19 0 -29 -17 -21 -37
2 -7 10 -13 17 -13 7 0 15 -7 18 -15 7 -16 78 -55 103 -55 22 0 43 -29 44 -57
0 -13 4 -23 9 -23 4 0 11 -20 14 -45 4 -25 13 -58 20 -73 10 -21 12 -80 8
-267 l-6 -240 -75 -3 c-84 -4 -253 13 -303 30 -52 18 -84 45 -136 116 -28 37
-56 74 -63 82 -27 30 -46 68 -132 262 -9 20 -16 41 -16 47 0 6 -8 25 -18 43
-10 18 -26 60 -36 93 -9 33 -21 68 -27 77 -5 10 -9 27 -9 37 0 11 -4 22 -9 25
-5 4 -12 24 -16 46 -4 22 -11 42 -16 46 -5 3 -9 15 -9 28 0 12 -3 26 -7 30
-10 10 -34 102 -36 137 -2 30 -23 59 -43 59 -8 0 -14 5 -14 10 0 6 -13 10 -29
10 -16 0 -36 6 -43 13 -17 16 -56 34 -93 42 -16 4 -32 10 -35 13 -8 10 -43 32
-62 38 -10 4 -18 10 -18 15 0 5 -8 9 -18 9 -10 0 -26 15 -36 35 -11 19 -23 35
-28 35 -12 0 -10 27 5 53 19 34 49 67 62 67 6 0 22 11 34 24 13 14 40 28 62
31 21 4 41 11 45 16 3 5 14 9 25 9 10 0 27 5 37 10 16 10 103 36 130 39 6 0
12 -6 12 -14z m3375 -22 c28 -8 59 -18 70 -23 47 -19 112 -40 124 -40 7 0 22
-11 33 -25 11 -14 25 -25 33 -25 7 0 25 -14 39 -31 28 -33 34 -79 13 -101 -7
-7 -16 -20 -19 -29 -4 -9 -27 -26 -52 -39 -25 -12 -46 -26 -46 -31 0 -5 -5 -9
-11 -9 -11 0 -43 -13 -135 -56 -28 -13 -58 -24 -67 -24 -10 0 -17 -4 -17 -10
0 -5 -9 -10 -20 -10 -23 0 -43 -32 -34 -54 4 -9 2 -22 -4 -29 -5 -6 -18 -46
-28 -87 -11 -41 -22 -76 -26 -78 -5 -2 -8 -14 -8 -27 0 -13 -4 -26 -9 -30 -6
-3 -13 -26 -17 -50 -3 -25 -10 -45 -15 -45 -5 0 -9 -11 -9 -24 0 -14 -4 -27
-9 -30 -5 -4 -12 -25 -16 -49 -4 -23 -10 -44 -14 -47 -10 -8 -31 -49 -31 -61
0 -12 -24 -69 -45 -109 -14 -25 -55 -41 -55 -21 0 7 -43 11 -125 11 -69 0
-125 -4 -125 -8 0 -5 -57 -12 -127 -16 -71 -3 -129 -11 -131 -16 -2 -6 -30
-10 -63 -10 -35 0 -59 -4 -59 -11 0 -5 -4 -7 -10 -4 -13 8 -13 115 -1 115 5 0
13 25 16 55 4 30 11 58 16 61 5 3 9 18 9 34 0 16 5 32 10 35 6 3 10 17 10 30
0 24 1 25 107 71 17 8 37 14 44 14 24 0 49 33 49 64 0 37 -21 53 -80 62 -22 4
-40 10 -40 15 0 5 -10 9 -22 9 -29 0 -58 28 -58 57 0 12 -4 23 -10 23 -5 0
-10 15 -10 34 0 19 -4 37 -9 40 -4 3 -11 19 -14 35 -5 24 -12 29 -44 34 -21 2
-43 0 -49 -7 -6 -6 -17 -44 -23 -85 -15 -95 -22 -107 -79 -133 -26 -12 -60
-32 -75 -45 -16 -13 -35 -23 -43 -23 -8 0 -14 -9 -14 -20 0 -11 5 -20 10 -20
6 0 19 -9 29 -19 23 -23 65 -46 102 -54 14 -4 31 -17 37 -29 10 -20 16 -41 39
-138 4 -13 12 -31 20 -38 10 -10 11 -18 3 -27 -5 -6 -13 -46 -16 -89 l-7 -76
-33 0 c-19 0 -34 -4 -34 -10 0 -5 -22 -10 -50 -10 -27 0 -50 -4 -50 -9 0 -5
-56 -12 -125 -16 -69 -4 -125 -11 -125 -16 0 -5 -18 -9 -40 -9 -22 0 -40 -4
-40 -10 0 -5 -11 -10 -25 -10 l-25 0 0 123 c1 67 6 142 11 167 6 25 13 63 16
85 3 22 9 44 14 50 5 5 9 25 9 45 0 42 11 53 105 100 70 35 70 35 73 80 3 44
2 45 -40 64 -24 10 -56 23 -72 29 -50 18 -66 38 -66 84 0 24 -4 43 -10 43 -5
0 -10 20 -10 44 l0 45 158 4 c155 3 271 13 507 43 66 8 158 19 205 25 123 15
213 37 265 65 25 13 54 24 63 24 19 0 77 37 136 87 22 18 45 33 52 33 19 0 83
59 110 101 25 40 32 41 129 12z m-2035 3 c0 -8 -4 -18 -10 -21 -14 -8 -13 -35
1 -35 16 0 38 31 39 53 0 15 14 17 145 17 l145 0 0 -24 c0 -35 10 -56 26 -56
10 0 14 13 14 40 l0 41 147 -3 146 -3 11 -40 c13 -44 46 -63 46 -26 0 12 -4
21 -10 21 -5 0 -10 11 -10 25 0 21 5 25 30 25 17 0 30 -4 30 -8 0 -5 91 -12
202 -15 132 -3 204 -9 206 -16 2 -6 26 -11 52 -11 27 0 52 -5 55 -11 4 -6 40
-10 88 -9 45 1 89 0 97 -3 8 -3 42 -7 75 -9 65 -5 136 -33 129 -51 -5 -13 -43
-32 -87 -43 -15 -3 -30 -10 -33 -15 -3 -5 -16 -9 -30 -9 -13 0 -24 -4 -24 -9
0 -5 -38 -12 -85 -16 -47 -4 -88 -11 -91 -16 -3 -5 -20 -9 -39 -9 -18 0 -35
-4 -37 -9 -1 -6 -54 -13 -115 -17 -62 -4 -113 -11 -113 -15 0 -5 -56 -9 -124
-9 -73 0 -127 -4 -131 -10 -4 -6 -152 -10 -411 -10 -263 0 -404 3 -404 10 0 6
-57 10 -150 10 -82 0 -150 4 -150 9 0 5 -56 12 -125 16 -69 4 -125 11 -125 16
0 5 -16 9 -35 9 -19 0 -35 4 -35 9 0 5 -40 12 -90 15 -49 4 -90 12 -90 17 0 5
-11 9 -25 9 -14 0 -25 5 -25 10 0 6 -4 10 -9 10 -5 0 -22 5 -36 10 -23 9 -25
12 -12 25 8 7 26 17 41 21 14 3 29 10 32 15 3 5 18 9 34 9 15 0 30 5 32 11 2
6 52 13 126 16 67 3 122 10 122 14 0 5 23 9 50 9 28 0 50 5 50 10 0 6 26 10
58 10 32 0 61 3 65 6 3 3 69 5 145 5 89 -1 143 2 147 9 10 16 75 13 75 -4z
m353 -546 c7 -67 35 -105 95 -131 17 -8 32 -17 32 -21 0 -5 12 -9 28 -9 16 -1
20 -3 10 -6 -10 -2 -18 -9 -18 -14 0 -5 -8 -9 -19 -9 -26 0 -62 -20 -94 -52
-21 -21 -29 -40 -34 -88 -7 -67 -23 -82 -23 -21 0 22 -4 43 -10 46 -5 3 -10
15 -10 25 0 22 -45 70 -65 70 -8 0 -15 3 -15 8 0 10 -50 32 -73 32 -16 0 -17
3 -7 15 7 8 23 15 36 15 47 0 124 60 124 97 0 13 5 23 10 23 6 0 10 18 10 40
0 61 16 47 23 -20z m650 -102 c5 -40 42 -88 67 -88 5 0 10 -4 10 -9 0 -5 18
-11 40 -15 38 -6 57 -26 25 -26 -8 0 -15 -4 -15 -9 0 -4 -16 -11 -35 -14 -46
-8 -81 -44 -90 -95 -9 -53 -25 -64 -25 -18 0 20 -4 36 -10 36 -5 0 -10 6 -10
13 0 22 -34 55 -63 62 -15 4 -30 11 -33 16 -3 5 -16 9 -30 9 -13 0 -24 5 -24
10 0 6 11 10 24 10 14 0 28 5 31 10 3 6 14 10 23 10 22 0 72 50 72 71 0 10 5
21 10 24 6 3 10 15 10 26 0 36 17 19 23 -23z m-1373 -3 c0 -19 4 -35 9 -35 5
0 11 -10 15 -23 6 -25 53 -57 85 -57 12 0 21 -4 21 -10 0 -5 9 -10 21 -10 30
0 14 -17 -23 -26 -60 -13 -108 -49 -108 -81 0 -13 -4 -23 -10 -23 -5 0 -10
-11 -10 -25 0 -40 -17 -29 -23 16 -5 42 -40 89 -64 89 -7 0 -13 4 -13 10 0 5
-18 13 -40 16 -41 7 -56 24 -20 24 11 0 20 5 20 10 0 6 10 10 22 10 27 0 78
47 78 71 0 10 5 21 10 24 6 3 10 17 10 31 0 13 5 24 10 24 6 0 10 -16 10 -35z
m1900 -624 c0 -9 -29 -16 -127 -31 -35 -5 -72 -14 -82 -20 -11 -5 -31 -10 -45
-10 -14 0 -26 -3 -26 -8 0 -8 -95 -30 -165 -39 -22 -3 -44 -9 -50 -14 -17 -17
-25 -9 -25 24 0 45 15 57 73 57 26 0 57 4 67 10 10 5 75 13 144 16 70 4 129
11 132 16 7 11 104 10 104 -1z m100 -72 c0 -9 -54 -86 -115 -164 -8 -10 -15
-23 -15 -27 0 -5 -16 -22 -35 -39 -19 -17 -35 -36 -35 -43 0 -13 -75 -86 -88
-86 -5 0 -21 -13 -37 -30 -16 -16 -35 -30 -42 -30 -7 0 -13 -4 -13 -10 0 -5
-9 -10 -19 -10 -10 0 -21 -7 -25 -15 -3 -8 -14 -15 -25 -15 -11 0 -21 -3 -23
-7 -5 -12 -64 -43 -82 -43 -9 0 -16 -4 -16 -10 0 -5 -11 -10 -25 -10 l-25 0 0
198 0 197 28 12 c15 6 55 14 90 18 34 4 65 11 68 16 3 5 18 9 35 9 16 0 29 4
29 9 0 4 23 11 52 14 28 4 56 11 62 17 5 5 27 10 48 10 21 0 38 4 38 9 0 4 28
11 61 14 34 3 66 10 72 16 14 14 37 14 37 0z m-700 -34 c0 -31 -3 -35 -25 -35
-14 0 -25 -4 -25 -10 0 -5 -17 -10 -38 -10 -21 0 -43 -5 -49 -11 -7 -7 -52
-13 -109 -14 -65 -1 -99 -5 -102 -13 -2 -7 -21 -12 -42 -12 -21 0 -42 -4 -45
-10 -3 -5 -31 -10 -61 -10 l-54 0 0 39 c0 35 3 39 31 45 17 3 46 6 63 6 18 0
36 4 41 9 6 5 65 13 133 17 67 4 125 11 128 15 3 5 24 9 47 9 23 0 49 5 57 10
32 21 50 12 50 -25z m-632 -103 c3 -27 -1 -34 -23 -42 -14 -6 -45 -10 -69 -10
-23 0 -46 -4 -51 -9 -6 -5 -36 -11 -67 -13 l-58 -5 0 38 c0 43 -12 37 140 59
41 6 76 13 79 16 3 3 14 4 26 2 15 -2 21 -12 23 -36z m633 -154 c1 -130 9
-228 23 -258 4 -10 -2 -19 -21 -27 -54 -22 -124 -43 -148 -43 -13 0 -26 -4
-29 -9 -5 -7 -49 -20 -72 -21 -4 0 -8 44 -9 98 -1 53 -6 152 -10 220 l-7 122
26 0 c14 0 26 5 26 10 0 6 17 10 38 10 21 0 42 4 48 9 8 9 39 14 112 19 22 2
22 1 23 -130z m-351 -23 c0 -57 4 -95 10 -95 6 0 10 -49 10 -128 0 -135 -5
-152 -46 -152 -12 0 -24 -4 -26 -9 -1 -5 -36 -13 -75 -17 l-73 -7 0 242 0 241
54 0 c30 0 58 5 61 10 3 6 24 10 46 10 l39 0 0 -95z m-285 53 c2 -7 5 -116 7
-241 l3 -228 -25 5 c-14 4 -49 9 -78 12 -29 4 -55 11 -58 15 -3 5 -18 9 -34 9
-16 0 -32 5 -35 10 -3 6 -15 10 -26 10 -19 0 -19 7 -17 188 l3 187 63 3 c34 2
62 7 62 12 0 6 22 10 49 10 28 0 53 5 56 10 9 14 25 13 30 -2z m-1052 -18 c20
-11 50 -20 66 -20 17 0 33 -4 36 -10 4 -6 55 -10 121 -10 l114 0 0 -32 c0 -18
3 -63 7 -100 5 -60 4 -68 -12 -68 -18 0 -86 29 -95 41 -3 3 -16 10 -30 14 -14
4 -34 15 -45 25 -11 10 -31 21 -44 25 -14 4 -39 23 -57 41 -17 19 -35 34 -40
34 -11 1 -41 27 -68 58 -25 29 -5 30 47 2z m702 -32 c2 -7 6 -84 7 -171 3
-156 3 -157 -19 -157 -12 0 -24 4 -27 9 -3 5 -25 12 -48 15 -47 7 -113 28
-124 39 -4 4 -17 7 -29 7 -42 0 -50 26 -47 143 l3 107 124 0 c72 0 126 4 130
10 9 14 25 13 30 -2z"/>
</g>
</svg>
